<svg xmlns="http://www.w3.org/2000/svg" viewBox="0 0 512 512">
  <defs>
    <linearGradient id="grad1" x1="0%" y1="0%" x2="100%" y2="100%">
      <stop offset="0%" style="stop-color:#3b82f6;stop-opacity:1" />
      <stop offset="100%" style="stop-color:#1d4ed8;stop-opacity:1" />
    </linearGradient>
  </defs>
  <circle cx="256" cy="256" r="240" fill="url(#grad1)" />
  <path d="M256 96c-61.9 0-112 50.1-112 112 0 45 24.8 84.6 60.8 103.8l51.2 104.2 51.2-104.2c36-19.2 60.8-58.8 60.8-103.8 0-61.9-50.1-112-112-112zm0 160c-26.5 0-48-21.5-48-48s21.5-48 48-48 48 21.5 48 48-21.5 48-48 48z" fill="white" opacity="0.9"/>
  <path d="M368 368L256 480 144 368" stroke="white" stroke-width="30" stroke-linecap="round" stroke-linejoin="round" fill="none" display="none"/>
  <path d="M190 210l35 35 70-70" stroke="#3b82f6" stroke-width="25" stroke-linecap="round" stroke-linejoin="round" fill="none" />
</svg>
